<?xml version="1.0" encoding="utf-8"?>
<!-- Generator: Adobe Illustrator 25.0.1, SVG Export Plug-In . SVG Version: 6.00 Build 0)  -->
<svg version="1.1" id="Слой_1" xmlns="http://www.w3.org/2000/svg" xmlns:xlink="http://www.w3.org/1999/xlink" x="0px" y="0px"
	 viewBox="0 0 484.7 193.8" style="enable-background:new 0 0 484.7 193.8;" xml:space="preserve">
<style type="text/css">
	.st0{fill:#D3D3D3;}
	.st1{fill:#F6A316;}
	.st2{fill:#010202;}
	.st3{fill:#FFD700;}
	.st4{fill:#FFFFFF;}
	.st5{fill:#DC153D;}
</style>
<ellipse class="st0" cx="398.9" cy="180.7" rx="55.5" ry="13.1"/>
<ellipse class="st0" cx="176.4" cy="180.7" rx="55.5" ry="13.1"/>
<polygon class="st1" points="116.1,12.8 110.2,47 150.3,18 "/>
<polygon class="st2" points="120,17.7 117.3,39.8 137.9,21.4 "/>
<circle class="st1" cx="176.4" cy="96.2" r="85.3"/>
<circle class="st3" cx="398.9" cy="96.2" r="85.3"/>
<polygon class="st1" points="219,0 192.4,12.4 234.5,34.9 "/>
<polygon class="st2" points="216.7,5.7 225.1,26.2 200.4,13.9 "/>
<circle class="st4" cx="168" cy="74.7" r="35.7"/>
<circle class="st4" cx="212.1" cy="74.7" r="35.7"/>
<circle class="st4" cx="363.2" cy="74.7" r="35.7"/>
<circle class="st4" cx="414.2" cy="74.7" r="35.7"/>
<ellipse transform="matrix(0.2697 -0.9629 0.9629 0.2697 -63.0858 130.2139)" class="st1" cx="54.3" cy="106.7" rx="22" ry="55.5"/>
<ellipse class="st5" cx="179.2" cy="139" rx="16.4" ry="6.5"/>
<ellipse class="st5" cx="389.2" cy="139" rx="6.5" ry="16.4"/>
<circle class="st2" cx="195.6" cy="110.4" r="11"/>
<circle class="st2" cx="176.4" cy="74.7" r="8.5"/>
<circle class="st2" cx="220.6" cy="74.7" r="8.5"/>
<circle class="st2" cx="357.4" cy="74.7" r="8.5"/>
<circle class="st2" cx="405.7" cy="74.7" r="8.5"/>
<polygon class="st4" points="6.1,90.5 22.3,113.2 33.2,83.9 "/>
</svg>
